<svg width="24" height="24" viewBox="0 0 24 24" fill="none" xmlns="http://www.w3.org/2000/svg">
<path fill-rule="evenodd" clip-rule="evenodd" d="M5 0C2.23859 0 0 2.23853 0 5V19C0 21.7612 2.23859 24 5 24H19C21.7614 24 24 21.7612 24 19V5C24 2.23853 21.7614 0 19 0H5ZM12.5852 19.3525C11.3769 19.3525 10.3011 19.1875 9.35791 18.8579C8.41473 18.5322 7.61737 18.0532 6.96588 17.4204C6.31439 16.7915 5.81818 16.0229 5.47723 15.1138C5.13635 14.2046 4.96588 13.1704 4.96588 12.0112C4.96588 10.8677 5.13635 9.82959 5.47723 8.89795C5.82196 7.96582 6.32385 7.1665 6.98291 6.5C7.64203 5.82959 8.44696 5.31445 9.39771 4.95459C10.3522 4.59473 11.4394 4.41479 12.6591 4.41479C13.7878 4.41479 14.7954 4.57959 15.6818 4.90918C16.572 5.23877 17.3257 5.7085 17.9432 6.31836C18.5644 6.92432 19.0359 7.646 19.3579 8.48291C19.6837 9.31641 19.8447 10.2388 19.8409 11.25C19.8447 11.9468 19.7841 12.5869 19.6591 13.1704C19.5341 13.7539 19.3371 14.2632 19.0682 14.6987C18.803 15.1309 18.4545 15.4736 18.0227 15.7275C17.5909 15.9775 17.0682 16.1191 16.4545 16.1533C16.0151 16.1875 15.6591 16.1553 15.3864 16.0566C15.2593 16.0107 15.1462 15.9546 15.0472 15.8882C14.9335 15.8125 14.8383 15.7227 14.7614 15.6191C14.7023 15.5361 14.652 15.4473 14.6105 15.353C14.5533 15.2236 14.5127 15.083 14.4886 14.9316H14.4204C14.3295 15.1592 14.1515 15.3657 13.8864 15.5513C13.6746 15.6963 13.4254 15.8159 13.1387 15.9106C13.0664 15.9346 12.9918 15.957 12.9147 15.9775C12.5359 16.0757 12.1326 16.1118 11.7045 16.0854C11.4747 16.0718 11.2508 16.0376 11.033 15.9829C10.8272 15.9312 10.6268 15.8613 10.4318 15.7729C10.213 15.6729 10.0073 15.5479 9.81482 15.3984C9.65747 15.2764 9.50897 15.1382 9.36926 14.9829C9.0625 14.6382 8.82007 14.2119 8.64203 13.7046C8.46777 13.1968 8.37878 12.6099 8.375 11.9434C8.37878 11.2842 8.47156 10.7104 8.65338 10.2217C8.78259 9.88135 8.94031 9.57861 9.12646 9.31396C9.2077 9.19824 9.29431 9.08984 9.38635 8.98877C9.69318 8.65527 10.0341 8.39404 10.4091 8.20459C10.7841 8.01514 11.1609 7.89404 11.5397 7.84082C11.9678 7.77637 12.3731 7.77637 12.7557 7.84082C13.1382 7.90527 13.4602 8.00928 13.7216 8.15332C13.9867 8.29736 14.1515 8.45264 14.2159 8.61914H14.2954V7.98291H16.0739V13.5283C16.0776 13.79 16.1364 13.9927 16.25 14.1362C16.3636 14.2803 16.517 14.3525 16.7102 14.3525C16.9716 14.3525 17.1894 14.2368 17.3636 14.0059C17.5416 13.7744 17.6742 13.4204 17.7614 12.9434C17.8522 12.4658 17.8977 11.8579 17.8977 11.1191C17.8977 10.4072 17.803 9.78223 17.6136 9.24414C17.428 8.70264 17.1666 8.24268 16.8295 7.86377C16.4962 7.48096 16.1079 7.17041 15.6647 6.93164C15.2216 6.69336 14.7405 6.51904 14.2216 6.40918C13.7064 6.29932 13.1761 6.24414 12.6307 6.24414C11.6875 6.24414 10.8636 6.38818 10.1591 6.67627C9.45453 6.96045 8.86737 7.35986 8.39771 7.875C7.92798 8.39014 7.57574 8.99414 7.34088 9.6875C7.1098 10.377 6.99237 11.1289 6.98859 11.9434C6.99237 12.8408 7.11737 13.6362 7.36359 14.3296C7.61359 15.019 7.98102 15.5986 8.46588 16.0684C8.95074 16.5381 9.54919 16.894 10.2614 17.1362C10.9734 17.3789 11.7916 17.5 12.7159 17.5C13.1515 17.5 13.5776 17.4678 13.9943 17.4033C14.4109 17.3428 14.7878 17.2671 15.125 17.1763C15.4621 17.0889 15.7329 17.0039 15.9375 16.9204L16.5 18.5684C16.2614 18.7046 15.9375 18.8315 15.5284 18.9487C15.1231 19.0703 14.6647 19.1665 14.1534 19.2388C13.6458 19.3145 13.1231 19.3525 12.5852 19.3525ZM12.3239 14.2158C12.7859 14.2158 13.1534 14.127 13.4261 13.9487C13.7026 13.771 13.8996 13.5078 14.017 13.1592C14.1382 12.8066 14.1951 12.373 14.1875 11.8579C14.1837 11.4033 14.125 11.019 14.0114 10.7046C13.9015 10.3862 13.7102 10.146 13.4375 9.98291C13.1685 9.81641 12.7935 9.73291 12.3125 9.73291C12.0945 9.73291 11.8934 9.75684 11.709 9.80469C11.5377 9.84912 11.3809 9.91406 11.2386 10C10.947 10.1782 10.7234 10.4282 10.5682 10.75C10.4166 11.0684 10.339 11.4434 10.3352 11.875C10.339 12.2764 10.4034 12.6572 10.5284 13.0171C10.606 13.2378 10.7149 13.4336 10.8553 13.6035C10.941 13.7075 11.0385 13.8018 11.1477 13.8862C11.4356 14.106 11.8276 14.2158 12.3239 14.2158Z" fill="#303030"/>
</svg>
